<svg width="19" height="18" viewBox="0 0 19 18" fill="none" xmlns="http://www.w3.org/2000/svg">
<path d="M8.275 10.575L6.37188 8.67188C6.21146 8.51146 6.01458 8.43125 5.78125 8.43125C5.54792 8.43125 5.34375 8.51875 5.16875 8.69375C5.00833 8.85417 4.92812 9.05833 4.92812 9.30625C4.92812 9.55417 5.00833 9.75833 5.16875 9.91875L7.6625 12.4125C7.82292 12.5729 8.02708 12.6531 8.275 12.6531C8.52292 12.6531 8.72708 12.5729 8.8875 12.4125L13.8531 7.44688C14.0135 7.28646 14.0938 7.08958 14.0938 6.85625C14.0938 6.62292 14.0063 6.41875 13.8313 6.24375C13.6708 6.08333 13.4667 6.00312 13.2188 6.00312C12.9708 6.00312 12.7667 6.08333 12.6062 6.24375L8.275 10.575ZM9.5 17.75C8.28958 17.75 7.15208 17.5202 6.0875 17.0605C5.02292 16.6014 4.09688 15.9781 3.30938 15.1906C2.52188 14.4031 1.89858 13.4771 1.4395 12.4125C0.979833 11.3479 0.75 10.2104 0.75 9C0.75 7.78958 0.979833 6.65208 1.4395 5.5875C1.89858 4.52292 2.52188 3.59688 3.30938 2.80938C4.09688 2.02188 5.02292 1.39829 6.0875 0.938625C7.15208 0.479542 8.28958 0.25 9.5 0.25C10.7104 0.25 11.8479 0.479542 12.9125 0.938625C13.9771 1.39829 14.9031 2.02188 15.6906 2.80938C16.4781 3.59688 17.1014 4.52292 17.5605 5.5875C18.0202 6.65208 18.25 7.78958 18.25 9C18.25 10.2104 18.0202 11.3479 17.5605 12.4125C17.1014 13.4771 16.4781 14.4031 15.6906 15.1906C14.9031 15.9781 13.9771 16.6014 12.9125 17.0605C11.8479 17.5202 10.7104 17.75 9.5 17.75Z" fill="#28553F"/>
</svg>
