<svg width="17" height="16" viewBox="0 0 17 16" fill="none" xmlns="http://www.w3.org/2000/svg">
<path d="M11.8102 0.6698L9.95866 0.666748C7.87856 0.666748 6.5343 2.08347 6.5343 4.27623V5.94045H4.67269C4.51183 5.94045 4.38156 6.07442 4.38156 6.23966V8.65092C4.38156 8.81617 4.51198 8.94998 4.67269 8.94998H6.5343V15.0344C6.5343 15.1996 6.66457 15.3334 6.82543 15.3334H9.2543C9.41517 15.3334 9.54544 15.1994 9.54544 15.0344V8.94998H11.7221C11.883 8.94998 12.0132 8.81617 12.0132 8.65092L12.0141 6.23966C12.0141 6.16032 11.9834 6.08433 11.9289 6.02818C11.8743 5.97203 11.8001 5.94045 11.7228 5.94045H9.54544V4.52967C9.54544 3.8516 9.70274 3.50737 10.5626 3.50737L11.8099 3.50691C11.9706 3.50691 12.1009 3.37295 12.1009 3.20785V0.968861C12.1009 0.80392 11.9707 0.670105 11.8102 0.6698Z" fill="white"/>
</svg>
