<svg width="23" height="23" viewBox="0 0 23 23" fill="none" xmlns="http://www.w3.org/2000/svg">
<g clip-path="url(#clip0_4_43331)">
<path fill-rule="evenodd" clip-rule="evenodd" d="M5.55369 10.2906C5.55369 9.66856 5.67621 9.05259 5.91427 8.47788C6.15232 7.90317 6.50124 7.38097 6.9411 6.94111C7.38096 6.50125 7.90316 6.15233 8.47787 5.91428C9.05258 5.67622 9.66855 5.5537 10.2906 5.5537C10.9127 5.5537 11.5286 5.67622 12.1034 5.91428C12.6781 6.15233 13.2003 6.50125 13.6401 6.94111C14.08 7.38097 14.4289 7.90317 14.667 8.47788C14.905 9.05259 15.0275 9.66856 15.0275 10.2906C15.0275 11.5469 14.5285 12.7518 13.6401 13.6401C12.7518 14.5285 11.5469 15.0275 10.2906 15.0275C9.0343 15.0275 7.82945 14.5285 6.9411 13.6401C6.05276 12.7518 5.55369 11.5469 5.55369 10.2906ZM10.2906 2.39575C9.05953 2.39588 7.84555 2.68391 6.74563 3.23682C5.6457 3.78973 4.69032 4.59221 3.9558 5.58015C3.22128 6.56808 2.72797 7.71411 2.51529 8.92667C2.3026 10.1392 2.37643 11.3847 2.73088 12.5637C3.08533 13.7426 3.71057 14.8223 4.55666 15.7166C5.40275 16.6108 6.44624 17.2948 7.60378 17.7139C8.76132 18.133 10.0008 18.2756 11.2233 18.1303C12.4458 17.985 13.6173 17.5558 14.6444 16.877L19.7002 21.934C19.9964 22.2302 20.3982 22.3966 20.8171 22.3966C21.236 22.3966 21.6377 22.2302 21.934 21.934C22.2302 21.6378 22.3966 21.236 22.3966 20.8171C22.3966 20.3982 22.2302 19.9965 21.934 19.7002L16.877 14.6444C17.6637 13.4545 18.1132 12.0737 18.1779 10.6487C18.2426 9.22378 17.92 7.80792 17.2445 6.55162C16.5689 5.29532 15.5656 4.24551 14.3412 3.51376C13.1168 2.78201 11.717 2.39565 10.2906 2.39575Z" fill="white"/>
</g>
<defs>
<clipPath id="clip0_4_43331">
<rect width="23" height="23" fill="white"/>
</clipPath>
</defs>
</svg>
