<svg width="17" height="17" viewBox="0 0 17 17" fill="none" xmlns="http://www.w3.org/2000/svg">
<g clip-path="url(#clip0_4_42955)">
<path d="M4.03692 7.84963L11.4538 0.432884C11.6253 0.261205 11.8543 0.166626 12.0985 0.166626C12.3427 0.166626 12.5717 0.261205 12.7432 0.432884L13.2894 0.97895C13.6448 1.33477 13.6448 1.91309 13.2894 2.26837L7.06129 8.4965L13.2963 14.7315C13.4679 14.9032 13.5626 15.1321 13.5626 15.3761C13.5626 15.6204 13.4679 15.8493 13.2963 16.0211L12.7501 16.567C12.5785 16.7387 12.3496 16.8333 12.1054 16.8333C11.8613 16.8333 11.6323 16.7387 11.4607 16.567L4.03692 9.14352C3.86497 8.9713 3.77053 8.74135 3.77107 8.49691C3.77053 8.25152 3.86497 8.02171 4.03692 7.84963Z" fill="#B1B1B1"/>
</g>
<defs>
<clipPath id="clip0_4_42955">
<rect width="16.6667" height="16.6667" fill="white" transform="matrix(-1 0 0 1 17.0002 0.166626)"/>
</clipPath>
</defs>
</svg>
