<svg width="17" height="17" viewBox="0 0 17 17" fill="none" xmlns="http://www.w3.org/2000/svg">
<g clip-path="url(#clip0_4_43296)">
<path d="M4.03695 7.84975L11.4538 0.433006C11.6254 0.261327 11.8544 0.166748 12.0985 0.166748C12.3427 0.166748 12.5717 0.261327 12.7433 0.433006L13.2895 0.979072C13.6449 1.3349 13.6449 1.91321 13.2895 2.26849L7.06132 8.49663L13.2964 14.7317C13.4679 14.9033 13.5626 15.1322 13.5626 15.3762C13.5626 15.6206 13.4679 15.8494 13.2964 16.0212L12.7502 16.5672C12.5785 16.7388 12.3496 16.8334 12.1055 16.8334C11.8613 16.8334 11.6323 16.7388 11.4607 16.5672L4.03695 9.14364C3.86501 8.97142 3.77056 8.74148 3.7711 8.49703C3.77056 8.25164 3.86501 8.02183 4.03695 7.84975Z" fill="white"/>
</g>
<defs>
<clipPath id="clip0_4_43296">
<rect width="16.6667" height="16.6667" fill="white" transform="matrix(-1 0 0 1 17.0002 0.166748)"/>
</clipPath>
</defs>
</svg>
